<svg data-name="レイヤー 3" xmlns="http://www.w3.org/2000/svg" viewBox="0 0 425.73 83.837"><defs><clipPath id="a" transform="translate(-117.156 -70.691)"><path fill="none" d="M168.654 54.479h55.627v104.106h-55.627z"/></clipPath></defs><path d="M0 1.73v81.727l45.907-.86V19.179z" fill="#ff4500"/><g clip-path="url(#a)"><path fill="#737373" d="M46.018 83.386l-.011-4.221 46.479-.099V22.765L74.821 7.08 47.316 25.676l-2.398-3.487L75.177 1.731l21.565 19.148v62.397l-50.724.11z"/></g><path d="M12.858 43.252a5.192 5.192 0 01.686 2.799 5.58 5.58 0 01-.784 3.068 3.119 3.119 0 01-5.128.18 5.387 5.387 0 01-.813-3.063 5.576 5.576 0 01.695-2.86 2.876 2.876 0 012.64-1.527 2.968 2.968 0 012.704 1.403z" fill="#fff"/><path d="M145.108 57.303a28.055 28.055 0 001.469 7.014A59.445 59.445 0 00152.5 60.1a1.952 1.952 0 011.28-.475 2.624 2.624 0 012.56 2.417 2.08 2.08 0 01-1.044 1.707 56.11 56.11 0 01-7.109 4.075 16.25 16.25 0 008.578 7.726 2.1 2.1 0 011.564 1.99 2.522 2.522 0 01-2.559 2.417 3.102 3.102 0 01-1.09-.19c-7.915-2.89-12.749-14.312-13.46-22.559h-2.038c-.995.759-1.895 1.47-2.749 2.133 4.077 3.507 6.494 9.858 6.494 14.834 0 4.408-2.039 9.337-8.484 9.337-2.938 0-4.55-.806-4.55-2.607a1.827 1.827 0 011.943-1.895 2.331 2.331 0 01.57.047 10.284 10.284 0 001.99.237c3.128 0 4.265-2.18 4.265-5.877a13.92 13.92 0 00-.142-1.943c-8.626 7.393-16.777 9.336-18.057 9.336a1.907 1.907 0 01-2.038-1.895 2.074 2.074 0 011.8-2.086c6.589-1.185 11.754-4.312 17.394-9.052a13.96 13.96 0 00-.805-1.943c-8.816 6.113-15.877 7.25-15.925 7.25a1.852 1.852 0 01-1.943-1.895 1.937 1.937 0 011.66-1.895 35.203 35.203 0 0014.407-6.256 12.847 12.847 0 00-1.612-1.611 35.843 35.843 0 01-11.564 4.502 1.9 1.9 0 01-2.038-1.849 2.04 2.04 0 011.707-1.99 33.798 33.798 0 0012.275-4.834l-6.494.141h-.047a1.822 1.822 0 01-1.99-1.8 1.88 1.88 0 012.037-1.896h20.996a1.88 1.88 0 012.038 1.896 1.78 1.78 0 01-1.943 1.8h-.095zm-4.74-10.711c3.887 0 7.726.048 11.375.095 2.559.047 5.165 1.99 5.26 4.597.048.663.048 1.469.048 2.228 0 1.658 0 3.554-2.512 3.554a2.06 2.06 0 01-2.275-1.896v-.095c0-4.17-.047-4.644-2.986-4.74-3.791-.046-8.341-.094-12.749-.094-3.649 0-7.156.048-10.047.095-2.607.048-2.986.71-3.128 2.37v2.559a2.138 2.138 0 01-2.322 1.943 2.103 2.103 0 01-2.275-2.038c0-.568-.048-1.232-.048-1.942s.048-1.422.048-2.133c.094-2.133 1.8-4.36 5.45-4.409 3.602-.046 7.44-.094 11.327-.094l-.047-3.033v-.047a2.2 2.2 0 012.464-2.086 2.229 2.229 0 012.465 2.086v.047zM180.045 80.756c-4.407.71-4.74-4.503-.948-5.025 5.972-.805 10.569-2.558 13.934-5.545 4.028-3.554 4.313-7.44 2.132-9.952-3.033-3.46-8.388-3.365-12.653-2.086a46.053 46.053 0 00-6.778 2.797c-2.133 1.042-4.265 2.133-6.588 3.223-3.838 1.753-5.877-3.27-2.322-4.74 4.123-1.705 9.716-4.265 14.835-5.544 5.402-1.375 12.606-1.328 16.966 3.222 5.119 5.356 3.223 12.133-2.607 16.967-3.838 3.175-8.957 5.497-15.971 6.683zm13.84-30.522c-2.418-.996-.522-3.886 1.658-3.08a14.801 14.801 0 014.692 2.89c1.848 1.991-.9 4.835-2.465 2.986a16.552 16.552 0 00-3.886-2.796zm4.312-4.076c-2.417-.948-.711-3.839 1.516-3.128a15.274 15.274 0 014.787 2.75c1.896 1.895-.758 4.833-2.37 3.032a17.347 17.347 0 00-3.933-2.654zM224.741 82.13a87.483 87.483 0 00-10.047-15.404c-3.128-3.648-3.128-7.013.569-10.852 3.222-3.365 6.872-6.872 9.715-10.711 2.18-2.892 6.446.474 4.218 3.223-2.37 2.89-7.393 7.014-10.332 9.952-2.037 2.038-2.132 3.46-.568 5.403 4.739 5.924 8.767 10.379 11.09 15.45 1.469 3.176-3.128 5.972-4.645 2.939zM247.212 79.151c7.347-4.786 11.517-15.023 8.247-24.928-1.564-4.74-6.067-2.987-7.44-.048-1.375 2.891-1.47 4.834-1.233 8.958.237 4.596-4.882 4.55-5.166 1.137a42.167 42.167 0 011.09-10.948c.521-2.417 1.422-5.546 1.801-8.436.38-2.986 4.976-2.417 4.74.426a14.213 14.213 0 01-1.233 4.408c-.616 1.28-.142.664.332.048 3.46-4.456 9.621-2.512 11.564 2.843a25.881 25.881 0 01-9.384 30.238c-3.839 2.843-7.299-1.091-3.318-3.698zM292.282 56.68c-.759 6.019-5.024 14.976-9.573 19.195-3.65 3.364-7.631 1.516-9.716-2.56-2.986-5.877.19-14.692 6.54-19.1 5.83-4.028 14.502-4.692 20.474-1.09 7.346 4.408 8.531 13.129 4.408 19.906-2.228 3.65-6.873 6.588-11.564 7.82-4.171 1.09-5.64-3.697-1.564-4.645 3.602-.806 7.25-2.844 8.815-5.308 3.365-5.308 2.085-11.516-2.607-14.503a12.299 12.299 0 00-5.877-1.895 2.37 2.37 0 01.664 2.18zm-10.522.9c-4.407 3.413-6.777 9.716-4.786 13.365.71 1.375 1.943 2.086 3.128 1.043 3.554-3.128 6.872-10.664 7.346-15.782a3.352 3.352 0 01.426-1.469 15.705 15.705 0 00-6.114 2.843zM317.926 50.668c-2.465-3.033 2.18-5.593 4.076-2.892a48.12 48.12 0 015.545 11.043 90.398 90.398 0 018.341-5.213c3.223-1.8 5.687 2.75 2.038 4.597a71.288 71.288 0 00-13.46 8.389c-4.692 3.981-4.834 7.536-1.137 9.337 3.317 1.659 10.094.426 12.938-.616 3.981-1.517 5.403 3.933 1.185 5.119-3.744 1.042-11.659 1.99-16.35-.38-6.826-3.46-6.54-11.138 1.137-17.251.473-.38.9-.759 1.374-1.09a38.536 38.536 0 00-5.687-11.043zM352.005 71.047c-.426-8.53 4.171-14.786 5.972-18.01.19-.284.427-.663.047-.568a19.891 19.891 0 01-3.554.426c-3.744.19-3.507-4.976.237-4.881a17.529 17.529 0 009.005-1.801c3.033-1.754 5.498 2.701 2.085 4.407-3.317 1.66-10.474 11.09-9.431 20.427.805 7.157 7.251 7.772 12.18 3.176 6.019-5.593 5.83-16.446 4.502-19.479-.284-.616-.758-1.754-1.232-2.56-1.943-3.365 2.844-5.829 4.834-1.943 1.801 3.555 4.17 6.161 9.195 8.91 3.27 1.801.427 6.399-2.844 4.36a21.62 21.62 0 01-5.119-4.739c-.284-.378-.426-.474-.284 0 1.09 4.313-.047 13.27-6.114 19.29-6.73 6.682-18.862 5.876-19.479-7.015zm26.446-22.275c-2.417-.996-.52-3.838 1.659-3.033a14.654 14.654 0 014.692 2.844c1.848 1.99-.948 4.88-2.512 3.033a16.438 16.438 0 00-3.839-2.844zm4.266-4.076c-2.417-.948-.664-3.792 1.564-3.08a15.132 15.132 0 014.786 2.701c1.896 1.896-.805 4.881-2.417 3.08a17.545 17.545 0 00-3.933-2.7zM409.456 82.475c-3.838.758-5.07-3.934-1.042-4.74a22.264 22.264 0 006.35-2.037c5.214-3.034 6.636-6.304 5.64-8.2-.995-1.895-4.454-2.606-9.478-.332a29.896 29.896 0 00-6.35 4.077c-2.797 2.7-4.693 1.374-5.546-.285-.853-1.659-.758-4.597-.38-8.057.38-3.46.996-7.109 1.375-9.526.474-3.033 4.787-2.938 4.36.474-.237 1.99-.758 4.645-1.137 6.919-.379 2.322-.616 4.076-.284 4.93.142.379.379.379.805.141.948-.521 3.176-1.753 5.403-2.7 14.313-6.21 24.408 6.587 8.389 16.397a25.655 25.655 0 01-8.105 2.939zm-.189-30.237c-2.275.568-3.981-2.465-1.99-3.555.237-.143.71-.379.379-.616a16.577 16.577 0 01-3.365-2.228c-2.038-2.227 1.09-4.74 3.46-3.033.852.616 2.464 1.327 3.838 2.228s2.607 2.038 2.702 3.46c.095 1.374-.616 2.938-2.986 3.317-.616.095-1.28.237-2.038.427zM205.998 34.73v-3.881h-9.118v-4.517L208.3 12.98h3.488v12.08h2.828v5.789h-2.828v3.88zm-7.515-7.805v2.32h9.118v3.881h2.583v-3.88h2.828v-2.584h-2.828v-12.08h-1.145zm12.503 3.924zm-9.564-4.187l4.77-5.538 1.41-1.637v7.175zm3.496-1.603h1.08v-1.254zM132.64 34.311a.656.656 0 01-.653-.656l.014-8.183a.656.656 0 00-.654-.655l-7.078-.013a.656.656 0 00-.655.654l-.014 8.183a.657.657 0 01-.657.654l-2.413-.005a.656.656 0 01-.654-.656l.034-19.762a.657.657 0 01.656-.653l2.414.004a.657.657 0 01.654.656l-.012 6.955a.656.656 0 00.653.657l7.078.012a.657.657 0 00.656-.654l.012-6.956a.657.657 0 01.655-.654l2.374.004a.656.656 0 01.653.656l-.034 19.762a.656.656 0 01-.655.654zM139.009 23.613a11.88 11.88 0 012.48-7.611 7.981 7.981 0 016.599-3.104 8.62 8.62 0 016.943 2.832q2.398 2.823 2.39 7.915a12.176 12.176 0 01-2.525 8.08 8.788 8.788 0 01-7.132 2.98 7.7 7.7 0 01-6.504-2.974q-2.26-2.967-2.251-8.118m3.886.007a10.963 10.963 0 001.24 5.734 4.02 4.02 0 003.635 2.037 4.997 4.997 0 004.28-1.98 9.592 9.592 0 001.483-5.773q.013-7.416-5.45-7.426a4.335 4.335 0 00-3.842 2.003 9.632 9.632 0 00-1.346 5.405M180.236 33.751a.514.514 0 01-.525.64l-2.332-.004a.825.825 0 01-.776-.644l-1.906-10.05c-.067-.354-.223-.367-.346-.028l-3.786 10.382a1.004 1.004 0 01-.879.614h-.04a1.007 1.007 0 01-.878-.618l-3.77-10.395c-.122-.339-.281-.327-.354.025l-2.067 10.048a.839.839 0 01-.787.64l-2.291-.004a.515.515 0 01-.524-.642l4.03-19.782a.837.837 0 01.786-.64h.695a.96.96 0 01.853.626l4.14 12.957c.11.344.288.343.395 0l4.071-12.94a.95.95 0 01.851-.625h.655a.839.839 0 01.784.644zM187.085 16.647a.657.657 0 00-.656.653l-.006 3.6a.657.657 0 00.654.656l5.523.01a.657.657 0 01.654.655l-.004 1.883a.656.656 0 01-.655.652l-5.524-.009a.657.657 0 00-.656.654l-.008 5.033a.656.656 0 00.653.655l8.265.014a.656.656 0 01.653.656l-.003 2.005a.656.656 0 01-.656.654l-11.987-.021a.656.656 0 01-.655-.656l.034-19.762a.657.657 0 01.656-.654l11.988.02a.657.657 0 01.654.657l-.004 2.005a.656.656 0 01-.656.654zM216.231 14.028a.657.657 0 01.656-.654l2.414.004a.657.657 0 01.654.656l-.023 12.987a9.625 9.625 0 00.106 1.3 4.734 4.734 0 00.926 2.12 3.794 3.794 0 002.851 1.07 4.487 4.487 0 003.163-1.038 3.69 3.69 0 001.136-2.855l.024-13.57a.656.656 0 01.656-.654l2.414.004a.658.658 0 01.654.656l-.023 13.196a8.531 8.531 0 01-.124 1.298s-.61 3.22-2.064 4.446a8.7 8.7 0 01-5.813 1.832 8.134 8.134 0 01-5.65-1.809 6.58 6.58 0 01-1.98-5.154zM123.208 5.256a9.794 9.794 0 01-1.891 3.208l-1.44-.855a7.584 7.584 0 001.778-2.938zm2.487-1.587V7.98a1.716 1.716 0 01-.742 1.587 4.54 4.54 0 01-2.364.304 9.046 9.046 0 00-.462-1.565c.439.023 1.216.035 1.452.035.304 0 .372-.102.372-.338V3.669h-3.41v-1.62h3.41V0l2.115.09c-.022.146-.123.27-.37.304v1.654h3.41v1.62zm2.004.89a19.259 19.259 0 012.082 3.027l-1.554.89a17.313 17.313 0 00-1.935-3.22zM130.187 3.905h9.398v1.711h-8.903a.595.595 0 01-.405.214zM147.87 9.747c-.18-.473-.349-.878-.53-1.238-2.51.304-5.266.552-6.91.63a.324.324 0 01-.259.248l-.563-1.98c.327 0 .72-.012 1.148-.023.664-2.06 1.553-5.189 2.038-7.294l2.161.552a.383.383 0 01-.372.225c-.506 1.812-1.305 4.344-2.026 6.46a76.295 76.295 0 004.007-.304 14.807 14.807 0 00-1.317-1.958l1.452-.788a22.936 22.936 0 012.87 4.637zM158.676 1.576a.568.568 0 01-.26.225C157.36 6 155.424 8.408 151.72 9.882a10.82 10.82 0 00-1.17-1.407 8.16 8.16 0 005.672-5.808h-6.494v-1.62h7.124l.304-.203zM166.78 5.031h-2.341l.045 3.332c0 1.26-.585 1.542-2.77 1.542a7.29 7.29 0 00-.314-1.25h1.34a.354.354 0 00.337-.337l-.011-2.128a13.963 13.963 0 01-2.983 2.432 4.83 4.83 0 00-.957-1.025 10.024 10.024 0 003.23-2.566h-2.836V3.703h3.523l-.022-1.846 1.654.056c0 .102-.067.203-.27.226l.023 1.564h2.352zM167.895 3.905h9.398v1.711h-8.903a.596.596 0 01-.405.214zM187.053 7.305v1.621h-9.635V7.294h5.29c.214-1.17.45-3.163.563-4.424h-4.682V1.249h5.312l.304-.09 1.34.552a.449.449 0 01-.26.236c-.157 1.452-.562 4.086-.776 5.358zM187.03 3.905h9.4v1.711h-8.904a.595.595 0 01-.406.214z"/></svg>